<?xml version="1.0" encoding="utf-8"?>
<!-- Generator: Adobe Illustrator 22.1.0, SVG Export Plug-In . SVG Version: 6.00 Build 0)  -->
<!DOCTYPE svg PUBLIC "-//W3C//DTD SVG 1.1//EN" "http://www.w3.org/Graphics/SVG/1.1/DTD/svg11.dtd">
<svg version="1.1" id="Capa_1" xmlns="http://www.w3.org/2000/svg" xmlns:xlink="http://www.w3.org/1999/xlink" x="0px" y="0px"
	 viewBox="0 0 484.4 484.4" style="enable-background:new 0 0 484.4 484.4;" xml:space="preserve">
<style type="text/css">
	.st0{fill:#231F20;}
</style>
<path class="st0" d="M465.9,107c-10.3-8-25.2-6.2-33.2,4.1c-4,5.1-5.5,11.3-4.8,17.3l-50.6,18.7c-1.2-1.6-2.6-3-4.2-4.3
	c-8.1-6.3-19.1-6.5-27.3-1.3l-24.1-19.2c3.3-9.3,0.5-20.1-7.8-26.5c-10.3-8-25.2-6.2-33.2,4.1s-6.2,25.2,4.1,33.2
	c8.2,6.4,19.1,6.5,27.4,1.2l24.1,19.1c-2.1,6-1.7,12.5,1,18.2L248,255.2c-0.7-0.3-1.3-0.6-2-0.9l1.3-25.1c4.6-1.4,8.8-4.1,11.9-8.1
	c8-10.3,6.2-25.2-4.1-33.2c-10.3-8-25.2-6.2-33.2,4.1c-8,10.3-6.2,25.2,4.1,33.2c1.9,1.4,3.9,2.6,6,3.4l-1.3,25.1
	c-4.5,1.4-8.7,4.1-11.9,8.1c-1,1.3-1.8,2.6-2.5,4l-63.5-7.1c-0.6-3.5-2.1-6.9-4.3-9.9l42.8-66.4c8.9,2.3,18.6-0.7,24.6-8.4
	c8-10.3,6.2-25.2-4.1-33.2c-10.3-8-25.2-6.2-33.2,4.1c-6.8,8.7-6.5,20.6-0.1,29l-42.6,66.1c-0.5-0.1-1-0.2-1.5-0.4l-12-94.3
	c3.5-1.5,6.7-3.9,9.2-7.2c8-10.3,6.2-25.2-4.1-33.2s-25.2-6.2-33.2,4.1s-6.2,25.2,4.1,33.2c2.6,2.1,5.6,3.5,8.7,4.2l12.1,95
	c-1.6,0.8-3.1,1.7-4.4,2.8l-55.1-37.1c3-9.2,0.2-19.8-7.9-26.1c-10.3-8-25.2-6.2-33.2,4.1c-8,10.3-6.2,25.2,4.1,33.2
	c8.3,6.4,19.5,6.5,27.7,1l56.2,37.8c-0.5,2.3-0.7,4.6-0.6,6.9l-45.6,16.7c-1.4-2-3-3.8-5.1-5.4c-10.3-8-25.2-6.2-33.2,4.1
	c-8,10.3-6.2,25.2,4.1,33.2c10.3,8,25.2,6.2,33.2-4.1c3-3.9,4.6-8.4,4.9-12.9l47.5-17.4c1,1.1,2,2.1,3.2,3c1.6,1.3,3.3,2.2,5.1,3
	l-2.3,25.3c-4.8,1.3-9.2,4.1-12.5,8.3c-8,10.3-6.2,25.2,4.1,33.2c10.3,8,25.2,6.2,33.2-4.1c8-10.3,6.2-25.2-4.1-33.2
	c-1.7-1.3-3.5-2.3-5.4-3.1l2.3-25.2c4.9-1.3,9.4-4.1,12.8-8.4c0.9-1.1,1.6-2.3,2.3-3.5l63.9,7.2c0.9,4.4,3,8.6,6.4,12l-35.3,74.6
	c-8-1-16.2,2.1-21.5,8.9c-8,10.3-6.2,25.2,4.1,33.2c10.3,8,25.2,6.2,33.2-4.1c7.4-9.6,6.4-23-2-31.3l35.2-74.5
	c0.6,0.1,1.2,0.1,1.8,0.2l11.4,39.8c-1.5,1.2-2.8,2.5-4,4c-8,10.3-6.2,25.2,4.1,33.2c10.3,8,25.2,6.2,33.2-4.1
	c8-10.3,6.2-25.2-4.1-33.2c-4.4-3.4-9.5-5-14.7-5l-11.1-38.8c1.9-1.3,3.7-3,5.2-4.9c1.1-1.4,2-2.9,2.7-4.5l65.2,8.4
	c0.9,5.7,3.9,11,8.8,14.9c10.3,8,25.2,6.2,33.2-4.1c8-10.3,6.2-25.2-4.1-33.2c-10.3-8-25.2-6.2-33.2,4.1c-0.8,1-1.5,2.1-2.1,3.2
	l-66.2-8.5c-0.4-1.7-1-3.4-1.8-5.1l89.1-83.4c2.6,1.3,5.3,2,8,2.3l4.3,19.2c-2.7,1.5-5.2,3.6-7.2,6.1c-8,10.3-6.2,25.2,4.1,33.2
	c10.3,8,25.2,6.2,33.2-4.1s6.2-25.2-4.1-33.2c-3.3-2.6-7.1-4.1-10.9-4.7l-4.5-19.9c2.3-1.4,4.5-3.3,6.3-5.6c3.3-4.3,4.9-9.3,5-14.3
	l52.5-19.4c0.7,0.7,1.4,1.4,2.3,2c10.3,8,25.2,6.2,33.2-4.1C478,129.9,476.2,115,465.9,107z"/>
</svg>
